<?xml version="1.0" standalone="no"?>
<!DOCTYPE svg PUBLIC "-//W3C//DTD SVG 20010904//EN"
 "http://www.w3.org/TR/2001/REC-SVG-20010904/DTD/svg10.dtd">
<svg version="1.0" xmlns="http://www.w3.org/2000/svg"
 width="1843.000000pt" height="1843.000000pt" viewBox="0 0 1843.000000 1843.000000"
 preserveAspectRatio="xMidYMid meet">
<metadata>
Created by potrace 1.11, written by Peter Selinger 2001-2013
</metadata>
<g transform="translate(0.000000,1843.000000) scale(0.100000,-0.100000)"
fill="#000000" stroke="none">
<path d="M9573 16332 c-15 -2 -23 -11 -24 -25 -2 -26 -4 -89 -14 -357 -7 -196
-8 -239 -20 -605 -3 -110 -8 -249 -10 -310 -2 -60 -7 -191 -10 -290 -3 -99 -7
-238 -10 -310 -5 -131 -11 -291 -20 -595 -3 -91 -7 -219 -10 -285 -3 -66 -7
-201 -10 -300 -3 -99 -7 -232 -10 -295 -2 -63 -7 -200 -10 -305 -3 -104 -8
-239 -10 -300 -2 -60 -7 -193 -10 -295 -4 -102 -8 -239 -10 -305 -2 -66 -6
-201 -9 -300 -4 -99 -8 -234 -11 -300 -3 -66 -7 -201 -10 -300 -6 -203 -12
-393 -20 -605 -16 -461 -23 -665 -30 -905 -3 -93 -7 -228 -10 -300 -3 -71 -8
-203 -10 -293 -3 -89 -7 -224 -10 -300 -3 -75 -7 -211 -10 -302 -3 -91 -7
-221 -10 -290 -2 -69 -7 -201 -10 -295 -5 -175 -12 -375 -20 -595 -2 -69 -7
-208 -10 -310 -3 -102 -7 -246 -10 -320 -7 -167 -13 -372 -20 -595 -3 -93 -7
-226 -10 -295 -4 -115 -7 -190 -20 -590 -3 -74 -7 -218 -10 -320 -3 -102 -8
-232 -10 -290 -6 -137 -18 -500 -19 -568 0 -45 -2 -50 -13 -36 -7 10 -13 22
-13 28 0 5 -63 199 -139 430 -77 232 -264 799 -416 1261 -371 1125 -575 1743
-686 2080 -51 154 -94 282 -94 285 0 3 -13 42 -29 88 l-28 82 -66 1 c-169 2
-617 8 -1032 13 -250 4 -615 9 -810 11 -195 2 -530 7 -745 10 -214 3 -552 8
-750 10 -198 2 -542 7 -765 10 -223 3 -560 7 -750 10 -190 2 -545 7 -790 10
-1028 14 -940 15 -941 -9 -5 -129 -6 -306 -1 -307 17 -4 588 -13 1502 -24 173
-2 506 -7 740 -10 234 -3 585 -7 780 -10 195 -3 535 -7 755 -10 220 -3 555 -7
745 -10 190 -2 541 -7 780 -10 239 -3 570 -8 735 -10 165 -2 317 -4 337 -4 37
-1 45 -10 53 -61 1 -3 67 -203 147 -445 119 -358 459 -1387 753 -2280 29 -88
111 -338 183 -555 72 -217 248 -753 392 -1190 144 -437 298 -903 342 -1035 44
-132 81 -246 81 -253 1 -32 12 5 13 46 7 238 16 495 19 577 2 55 7 179 10 275
3 96 8 238 10 315 3 77 7 217 10 310 19 582 26 775 30 895 2 58 6 184 10 280
3 96 7 236 10 310 3 74 7 214 10 310 3 96 8 234 10 305 3 72 7 202 10 290 3
88 7 216 10 285 3 69 7 204 10 300 8 262 14 429 20 595 2 83 7 222 10 310 3
88 7 223 10 300 3 77 7 212 10 300 3 88 7 223 10 300 3 77 7 214 10 304 3 91
8 226 10 300 3 75 7 206 10 291 14 454 15 467 30 895 3 77 7 212 10 300 2 88
7 225 10 305 2 80 7 219 10 310 3 91 8 228 10 305 3 77 7 208 10 290 3 83 7
220 10 305 2 85 7 216 10 290 3 74 7 212 10 305 3 94 8 226 10 295 2 69 7 211
10 315 7 203 10 303 20 595 7 201 13 383 16 470 l1 55 8 -40 c5 -22 11 -76 15
-120 4 -44 8 -82 10 -85 2 -3 6 -43 10 -90 4 -47 8 -92 10 -100 2 -8 6 -44 10
-80 3 -36 8 -76 10 -90 2 -14 6 -54 10 -90 4 -36 8 -76 10 -90 2 -14 7 -54 10
-90 4 -36 9 -76 10 -90 2 -14 7 -59 10 -100 4 -41 9 -77 10 -80 2 -3 6 -43 10
-90 3 -47 8 -92 10 -100 2 -8 7 -44 10 -80 4 -36 8 -76 10 -90 2 -14 6 -50 10
-80 9 -86 16 -153 20 -180 2 -14 6 -54 10 -90 7 -66 12 -111 19 -177 3 -21 12
-105 21 -188 17 -155 22 -205 30 -265 2 -19 9 -80 15 -135 6 -55 13 -116 15
-135 2 -19 7 -60 10 -90 3 -30 8 -71 10 -90 2 -19 7 -64 10 -100 3 -36 8 -76
10 -90 3 -22 9 -69 20 -165 2 -16 6 -59 10 -95 3 -36 10 -99 15 -140 5 -41 12
-95 14 -120 3 -25 8 -72 11 -105 4 -33 8 -71 10 -85 2 -14 6 -54 10 -90 4 -36
8 -76 10 -90 3 -23 15 -124 20 -180 2 -14 6 -52 9 -85 4 -33 9 -76 11 -95 2
-19 7 -57 10 -85 3 -27 7 -66 9 -85 6 -51 16 -150 21 -185 2 -16 7 -57 10 -90
4 -33 9 -76 11 -95 2 -19 7 -57 9 -85 9 -82 13 -117 19 -175 4 -30 8 -71 10
-90 8 -77 17 -156 21 -180 2 -14 7 -56 11 -95 3 -38 8 -81 10 -95 2 -14 6 -54
9 -90 3 -36 8 -76 10 -90 2 -14 7 -52 10 -85 3 -33 8 -76 11 -95 4 -33 7 -60
19 -175 3 -27 8 -66 10 -85 2 -19 7 -60 10 -90 3 -30 8 -71 10 -90 19 -169 22
-197 30 -270 3 -30 8 -71 10 -90 6 -46 13 -111 20 -185 3 -33 8 -71 10 -85 2
-14 7 -52 10 -85 5 -52 14 -135 30 -265 8 -74 15 -137 20 -185 3 -27 8 -72 11
-99 l6 -48 82 153 c45 85 109 206 143 269 33 63 76 144 95 180 47 88 115 216
173 325 26 50 62 117 80 150 18 33 60 114 95 180 34 66 75 143 90 170 15 28
50 93 78 145 l50 95 254 -2 c139 0 431 -4 648 -8 217 -4 487 -8 600 -10 113
-2 367 -7 565 -10 198 -3 468 -8 600 -10 218 -3 448 -7 1150 -20 132 -2 407
-7 610 -10 204 -4 396 -7 428 -8 l57 -2 1 40 c0 22 2 97 3 168 l3 127 -76 1
c-42 0 -168 2 -281 4 -339 6 -900 16 -1150 20 -129 2 -383 7 -565 10 -181 3
-449 7 -595 10 -146 3 -416 7 -600 10 -184 3 -443 8 -575 10 -284 5 -883 15
-1112 19 l-162 3 -32 -61 c-18 -34 -47 -88 -64 -121 -78 -144 -116 -217 -171
-320 -32 -60 -84 -159 -117 -220 -32 -60 -64 -122 -70 -137 -13 -32 -27 -37
-28 -10 0 9 -2 26 -4 37 -2 11 -7 55 -10 99 -4 44 -8 83 -10 86 -1 3 -6 41
-10 85 -4 44 -8 82 -10 85 -2 3 -6 39 -9 80 -3 41 -8 84 -10 95 -2 11 -7 58
-11 105 -4 47 -8 87 -10 90 -2 3 -6 43 -10 90 -4 47 -8 87 -10 90 -2 3 -6 37
-10 75 -3 39 -8 84 -10 100 -8 63 -15 122 -20 175 -3 30 -7 71 -10 90 -2 19
-7 60 -10 90 -3 30 -8 75 -10 100 -3 25 -9 86 -15 135 -6 50 -13 110 -16 135
-2 25 -6 59 -9 75 -2 17 -7 62 -10 100 -3 39 -8 81 -10 95 -3 14 -7 52 -10 85
-4 33 -8 71 -10 85 -2 14 -7 57 -10 95 -4 39 -8 77 -10 85 -2 8 -7 49 -10 90
-3 41 -8 82 -10 90 -2 8 -7 49 -10 90 -4 41 -8 82 -10 90 -2 8 -6 49 -10 90
-3 41 -8 82 -10 90 -3 8 -7 42 -10 75 -14 150 -16 172 -20 195 -6 43 -20 165
-30 261 -7 72 -17 164 -20 179 -2 8 -6 49 -10 90 -4 41 -8 82 -10 90 -2 8 -6
51 -10 95 -4 44 -9 87 -10 95 -1 8 -6 44 -9 80 -9 80 -15 134 -21 180 -5 34
-6 51 -20 185 -3 33 -10 94 -15 135 -5 41 -12 100 -15 130 -3 30 -8 71 -10 90
-5 35 -13 106 -20 189 -3 24 -7 60 -9 80 -5 34 -11 88 -20 171 -2 19 -7 58
-10 85 -3 28 -8 73 -11 100 -3 28 -7 68 -10 90 -3 22 -8 63 -10 90 -10 90 -15
139 -20 183 -3 23 -7 62 -10 87 -3 25 -7 66 -10 91 -3 25 -8 65 -10 88 -13
128 -16 153 -20 176 -2 14 -6 55 -10 92 -3 37 -7 75 -9 85 -2 10 -7 50 -10 88
-4 39 -9 81 -11 95 -2 14 -6 55 -10 92 -3 37 -7 75 -9 85 -2 10 -7 52 -11 93
-4 41 -9 82 -10 90 -2 9 -6 47 -10 85 -3 39 -8 84 -10 100 -9 70 -15 124 -20
180 -4 33 -8 69 -10 81 -2 11 -6 52 -10 90 -3 38 -8 83 -10 99 -2 17 -7 57
-10 90 -3 33 -8 71 -10 85 -2 14 -6 54 -10 90 -3 36 -8 76 -10 90 -3 14 -7 56
-11 95 -3 38 -7 76 -9 85 -2 8 -6 44 -10 80 -3 36 -8 76 -10 90 -2 14 -7 58
-10 99 -4 41 -8 82 -10 90 -2 9 -6 45 -10 81 -4 36 -9 79 -11 95 -2 17 -6 63
-10 104 -3 40 -8 80 -9 90 -2 9 -4 20 -4 24 -1 7 -256 6 -308 -1z"/>
<path d="M1718 14005 c-2 -2 -82 -6 -178 -10 -96 -3 -191 -8 -210 -10 -19 -1
-82 -6 -140 -10 -58 -3 -116 -8 -130 -10 -14 -2 -50 -7 -80 -10 -110 -14 -181
-65 -203 -145 -11 -36 -13 -528 -12 -2490 1 -2723 -5 -2488 71 -2546 l37 -29
242 0 c241 0 242 0 278 25 77 52 72 -21 75 1073 l2 978 58 -6 c305 -27 592
-34 832 -20 156 9 185 11 235 19 22 3 58 8 80 11 23 3 52 7 65 10 14 3 41 8
60 11 19 3 62 13 95 21 61 15 84 21 120 28 47 10 223 78 309 119 188 91 384
248 493 396 120 165 217 395 249 595 3 20 8 47 10 59 22 112 25 542 5 676 -68
442 -262 752 -606 967 -105 66 -371 180 -462 198 -10 1 -45 10 -78 18 -60 16
-72 18 -175 36 -68 12 -109 18 -185 26 -33 4 -73 9 -90 12 -31 5 -762 13 -767
8z m652 -619 c130 -10 158 -14 317 -42 16 -3 37 -8 48 -11 11 -4 25 -8 30 -9
72 -14 223 -81 295 -130 237 -160 330 -393 324 -813 -5 -373 -88 -594 -284
-753 -89 -72 -272 -154 -386 -173 -22 -4 -52 -11 -69 -15 -16 -5 -52 -12 -80
-16 -27 -3 -61 -8 -75 -10 -42 -6 -280 -18 -365 -18 -77 0 -396 12 -500 19
-27 1 -74 3 -102 4 l-53 1 0 975 c0 921 1 975 18 976 9 1 33 3 52 4 19 2 112
6 205 10 94 4 171 8 172 8 4 5 380 -1 453 -7z"/>
<path d="M12847 12674 c-1 -2 -43 -5 -92 -8 -102 -6 -158 -13 -231 -27 -28 -5
-64 -12 -80 -15 -16 -3 -60 -14 -97 -25 -425 -126 -641 -405 -652 -844 -8
-303 89 -531 321 -761 151 -150 250 -217 804 -544 352 -208 554 -334 596 -373
78 -73 130 -130 152 -166 47 -81 58 -193 31 -316 -48 -209 -238 -306 -604
-308 -92 0 -412 11 -475 18 -19 2 -78 6 -130 10 -197 14 -216 15 -250 20 -19
2 -66 7 -105 11 -38 3 -78 8 -90 10 -59 12 -133 5 -171 -14 -73 -37 -79 -55
-81 -239 -1 -150 0 -166 21 -204 36 -68 118 -104 312 -135 20 -3 46 -8 58 -10
11 -2 41 -6 66 -9 25 -3 56 -8 70 -10 14 -2 61 -7 105 -11 44 -3 89 -8 100
-10 88 -17 654 -24 800 -11 580 53 951 318 1050 751 45 196 39 427 -15 601
-19 60 -79 189 -102 220 -4 6 -26 35 -49 65 -62 82 -123 143 -234 234 -137
113 -186 145 -700 451 -247 147 -493 298 -546 336 -173 123 -242 223 -242 354
-1 226 111 327 388 350 134 12 640 5 790 -10 22 -2 87 -7 145 -11 58 -4 121
-8 140 -10 19 -1 89 -5 155 -9 144 -7 177 4 211 73 20 39 22 56 20 205 -2 142
-5 166 -22 197 -22 37 -86 76 -141 85 -63 10 -89 14 -163 24 -195 27 -212 29
-300 36 -41 3 -91 8 -110 10 -90 11 -645 27 -653 19z"/>
<path d="M16338 12675 c-2 -1 -47 -5 -100 -9 -53 -3 -103 -8 -110 -11 -7 -2
-31 -7 -53 -10 -68 -10 -202 -44 -278 -72 -105 -38 -309 -143 -337 -173 -3 -3
-32 -27 -65 -52 -99 -75 -211 -204 -292 -333 -32 -52 -124 -235 -118 -235 2 0
-7 -26 -20 -57 -24 -60 -72 -242 -79 -303 -3 -19 -5 -35 -6 -35 -1 0 -3 -11
-4 -25 -1 -14 -7 -59 -11 -100 -18 -151 -11 -1073 9 -1220 31 -230 79 -394
164 -570 77 -159 142 -251 260 -368 230 -228 538 -358 952 -402 71 -7 549 -4
655 4 178 15 221 18 234 21 9 1 48 6 86 9 85 9 246 32 345 51 14 3 43 7 65 11
22 3 48 7 57 10 10 3 30 8 45 10 53 10 102 46 124 91 18 37 21 64 23 186 2
154 -6 212 -32 240 -45 50 -106 59 -252 38 -41 -5 -102 -13 -135 -16 -33 -3
-78 -7 -100 -10 -310 -29 -903 -47 -1055 -31 -98 11 -111 13 -160 26 -173 45
-282 108 -379 217 -95 106 -179 305 -197 468 -3 28 -8 53 -10 57 -6 9 -17 190
-18 288 l-1 75 1151 1 c847 1 1160 4 1186 13 43 14 72 44 94 96 14 34 16 80
16 326 -1 267 -3 313 -18 444 -73 629 -401 1071 -930 1256 -45 15 -92 30 -105
32 -13 3 -42 10 -64 15 -46 13 -141 28 -235 38 -61 6 -297 13 -302 9z m312
-630 c363 -68 560 -287 621 -690 14 -94 28 -320 22 -345 -4 -13 -109 -15 -876
-15 l-872 0 1 75 c4 227 50 445 126 588 121 229 307 350 608 395 38 6 330 0
370 -8z"/>
<path d="M4843 12610 c-48 -21 -90 -70 -101 -118 -11 -44 -9 -2472 2 -2582 55
-568 267 -929 650 -1106 120 -55 231 -83 406 -104 72 -8 378 -5 425 5 17 4 46
8 65 10 81 7 264 54 390 100 68 24 114 44 241 107 108 52 116 54 116 35 -2
-63 15 -124 42 -154 53 -58 68 -61 289 -63 221 -1 265 6 304 47 60 63 57 -65
57 1899 0 1773 0 1800 -20 1840 -11 24 -38 54 -61 70 l-41 29 -201 2 c-119 1
-216 -3 -238 -9 -46 -13 -89 -51 -113 -98 -17 -33 -18 -110 -18 -1502 l0
-1467 -106 -47 c-340 -150 -575 -206 -826 -199 -77 2 -151 6 -165 9 -63 11
-79 15 -139 36 -192 65 -320 249 -355 510 -3 25 -9 68 -12 95 -4 28 -8 610 -8
1295 -2 1328 1 1263 -50 1318 -47 53 -66 57 -288 58 -176 1 -212 -1 -245 -16z"/>
</g>
</svg>
